#N canvas 165 268 480 438 10;
#X obj 156 25 inlet;
#X obj 39 388 outlet;
#X obj 12 25 bng 15 50 50 0 \$0-b-snd \$0-b-rcv empty 17 7 0 10 -262144
-1 -1;
#X obj 318 84 inlet;
#X obj 276 84 inlet;
#X obj 402 84 inlet;
#X text 326 66 num;
#X text 405 67 wait;
#X obj 360 84 inlet;
#X text 161 8 bang;
#X text 277 67 voice;
#X text 356 67 phrase;
#X obj 156 101 t b b, f 7;
#X obj 39 322 spigot, f 20;
#X msg 164 262 0;
#X msg 156 122 1;
#X obj 156 285 f;
#X obj 156 46 s \$0-b-rcv;
#X obj 156 78 r \$0-b-snd;
#X obj 176 338 sel 0 1, f 31;
#X msg 176 361 color 0 22 22;
#X obj 176 385 s \$0-b-rcv;
#X msg 267 361 color 16 13 22;
#X obj 176 317 change;
#X obj 195 128 list append \$2;
#X obj 195 149 list append \$3, f 21;
#X obj 195 171 list append \$4, f 28;
#X obj 195 192 list append \$5, f 35;
#X obj 39 343 t b b;
#X obj 195 213 s speaker-\$1-say;
#X obj 164 241 r speaker-\$1-say;
#X obj 39 238 r speaker-\$1-end;
#X obj 39 364 del 0;
#X connect 0 0 17 0;
#X connect 3 0 25 1;
#X connect 4 0 24 1;
#X connect 5 0 27 1;
#X connect 8 0 26 1;
#X connect 12 0 15 0;
#X connect 12 1 24 0;
#X connect 13 0 28 0;
#X connect 14 0 16 0;
#X connect 15 0 16 0;
#X connect 16 0 13 1;
#X connect 16 0 23 0;
#X connect 18 0 12 0;
#X connect 19 0 20 0;
#X connect 19 1 22 0;
#X connect 20 0 21 0;
#X connect 22 0 21 0;
#X connect 23 0 19 0;
#X connect 24 0 25 0;
#X connect 25 0 26 0;
#X connect 26 0 27 0;
#X connect 27 0 29 0;
#X connect 28 0 32 0;
#X connect 28 1 14 0;
#X connect 30 0 14 0;
#X connect 31 0 13 0;
#X connect 32 0 1 0;
#X coords 0 -1 1 1 50 32 1 10 10;
