#N canvas 502 166 742 574 10;
#X declare -stdpath ggee -stdpath hcs;
#X declare -stdpath iemlib -stdlib iemlib1 -stdlib iemlib;
#X declare -path intern;
#X obj 70 12 inlet;
#X obj 70 33 route maindir;
#X obj 70 54 symbol;
#X obj 229 38 print speaking-\$1-maindir;
#X obj 70 75 s speaking-\$1-maindir;
#X obj 229 17 r speaking-\$1-maindir;
#X obj 69 223 r speaking-\$1-maindir;
#X obj 69 244 t b s;
#X obj 106 341 text define speaking-\$1-phrases;
#X obj 289 360 route updated;
#X msg 106 268 symbol \$1/phrases.txt;
#X msg 106 318 read \$1;
#X obj 160 299 symbol;
#X obj 289 381 b;
#X msg 160 318 write \$1;
#X obj 273 465 route updated;
#X msg 96 423 read \$1;
#X obj 150 404 symbol;
#X obj 273 486 b;
#X msg 150 423 write \$1;
#X msg 273 311 click;
#X msg 316 311 close;
#X msg 277 419 click;
#X msg 320 419 close;
#X msg 475 231 0;
#X msg 505 231 1;
#X msg 562 233 hello;
#X msg 603 233 goodbye;
#X symbolatom 484 287 10 0 0 0 - - -, f 10;
#X floatatom 571 288 5 0 0 0 - - -, f 5;
#X msg 474 317 0;
#X msg 504 317 1;
#X symbolatom 483 373 10 0 0 0 - - -, f 10;
#X floatatom 570 374 5 0 0 0 - - -, f 5;
#X msg 561 319 joe;
#X msg 602 319 jack;
#X msg 96 375 symbol \$1/voices.txt;
#X obj 96 446 text define speaking-\$1-voices;
#X obj 44 40 bng 15 250 50 0 empty empty empty 17 7 0 10 -262144 -1
-1;
#X obj 397 37 declare -stdpath ggee -stdpath hcs;
#X obj 397 58 declare -stdpath iemlib -stdlib iemlib1 -stdlib iemlib
;
#X obj 397 16 declare -path intern;
#X obj 484 266 getID \$1 phrase;
#X obj 483 352 getID \$1 voice, f 15;
#X obj 471 104 text define speaking-\$1-set;
#N canvas 71 268 507 530 fill-voice 1;
#X symbolatom 232 100 10 0 0 0 - - -, f 10;
#X obj 108 123 text size speaking-\$1-phrases;
#X obj 71 85 bng 15 250 50 0 empty empty empty 17 7 0 10 -262144 -1
-1;
#X obj 108 144 t f b;
#X obj 108 165 until;
#X obj 108 186 f;
#X obj 140 186 + 1;
#X msg 152 164 0;
#X obj 310 230 r speaking-\$1-maindir;
#X obj 127 253 pack s s s, f 31;
#X msg 127 274 symbol \$3/\$2/\$1/*.wav;
#X obj 127 295 folder_list;
#X msg 57 182 0;
#X obj 127 316 split_path;
#X obj 184 339 splitfilename .;
#X obj 184 360 list prepend;
#X obj 184 384 t l;
#X msg 147 359 list;
#X obj 108 406 list append;
#X obj 108 230 t s s b;
#X obj 219 77 getID \$1 voice;
#X obj 108 209 getID \$1 phrase;
#X obj 108 36 r speaking-\$1-fillVoice;
#X obj 108 459 text insert speaking-\$1-set 1e+06, f 34;
#X obj 108 56 t b f, f 19;
#X obj 108 433 list prepend, f 35;
#X obj 203 316 s \$0-inc;
#X connect 1 0 3 0;
#X connect 2 0 1 0;
#X connect 3 0 4 0;
#X connect 3 1 7 0;
#X connect 4 0 5 0;
#X connect 5 0 6 0;
#X connect 5 0 21 0;
#X connect 6 0 5 1;
#X connect 7 0 5 1;
#X connect 8 0 9 2;
#X connect 9 0 10 0;
#X connect 10 0 11 0;
#X connect 11 0 13 0;
#X connect 12 0 21 0;
#X connect 13 1 14 0;
#X connect 13 1 26 0;
#X connect 14 0 15 0;
#X connect 15 0 16 0;
#X connect 16 0 15 1;
#X connect 16 0 18 1;
#X connect 17 0 16 0;
#X connect 18 0 25 0;
#X connect 19 0 18 0;
#X connect 19 1 9 0;
#X connect 19 2 17 0;
#X connect 20 0 25 1;
#X connect 20 0 9 1;
#X connect 21 0 19 0;
#X connect 22 0 24 0;
#X connect 24 0 1 0;
#X connect 24 1 20 0;
#X connect 25 0 23 0;
#X restore 470 127 pd fill-voice;
#N canvas 1 105 470 378 fill-allVoices 0;
#X obj 92 143 t f b;
#X obj 92 164 until;
#X obj 92 185 f;
#X obj 124 185 + 1;
#X msg 136 163 0;
#X obj 92 122 text size speaking-\$1-voices;
#X msg 281 121 -1;
#X obj 281 143 text delete speaking-\$1-set;
#X obj 65 57 r speaking-\$1-fillAllVoices;
#X obj 92 99 t b b, f 32;
#X obj 92 209 s speaking-\$1-fillVoice;
#X obj 89 239 r \$0-inc;
#X obj 65 78 t b b;
#X msg 229 253 0;
#X obj 89 282 +;
#X msg 89 260 1;
#X obj 122 283 f;
#X obj 65 309 f, f 10;
#X obj 65 330 outlet nbfiles;
#X connect 0 0 1 0;
#X connect 0 1 4 0;
#X connect 1 0 2 0;
#X connect 2 0 3 0;
#X connect 2 0 10 0;
#X connect 3 0 2 1;
#X connect 4 0 2 1;
#X connect 5 0 0 0;
#X connect 6 0 7 0;
#X connect 8 0 12 0;
#X connect 9 0 5 0;
#X connect 9 1 6 0;
#X connect 9 1 13 0;
#X connect 11 0 15 0;
#X connect 12 0 17 0;
#X connect 12 1 9 0;
#X connect 13 0 16 0;
#X connect 14 0 16 0;
#X connect 15 0 14 0;
#X connect 16 0 14 1;
#X connect 16 0 17 1;
#X connect 17 0 18 0;
#X restore 470 146 pd fill-allVoices;
#X obj 484 433 text search speaking-\$1-set;
#X floatatom 484 454 5 0 0 0 - - -, f 5;
#X msg 484 409 list jack hello;
#X obj 69 501 s speaking-\$1-fillAllVoices;
#X floatatom 430 167 5 0 0 0 - - -, f 5;
#X obj 470 188 s \$0-nbfilescanvas;
#X msg 470 167 label nb_files:\$1;
#X obj 273 291 r \$0-editphrases;
#X obj 277 399 r \$0-editvoices;
#X obj 103 138 bng 15 250 50 0 \$0-editphrases \$0-editphrases-rcv
edit_phrases 17 7 0 10 -262144 -1 -1;
#X obj 103 156 bng 15 250 50 0 \$0-editvoices \$0-editvoices-rcv edit_voices
17 7 0 10 -262144 -1 -1;
#X obj 103 120 bng 15 250 50 0 \$0-reload \$0-reload-rcv reload 17
7 0 10 -257985 -1 -1;
#X obj 117 54 r \$0-reload;
#X obj 101 173 cnv 15 100 15 empty \$0-nbfilescanvas ---- 5 7 0 10
-204786 -1 0;
#X connect 0 0 1 0;
#X connect 1 0 2 0;
#X connect 2 0 4 0;
#X connect 5 0 3 0;
#X connect 6 0 7 0;
#X connect 7 0 50 0;
#X connect 7 1 10 0;
#X connect 7 1 36 0;
#X connect 8 1 9 0;
#X connect 9 0 13 0;
#X connect 10 0 11 0;
#X connect 10 0 12 1;
#X connect 11 0 8 0;
#X connect 12 0 14 0;
#X connect 13 0 12 0;
#X connect 14 0 8 0;
#X connect 15 0 18 0;
#X connect 16 0 37 0;
#X connect 17 0 19 0;
#X connect 18 0 17 0;
#X connect 19 0 37 0;
#X connect 20 0 8 0;
#X connect 21 0 8 0;
#X connect 22 0 37 0;
#X connect 23 0 37 0;
#X connect 24 0 42 0;
#X connect 25 0 42 0;
#X connect 26 0 42 1;
#X connect 27 0 42 1;
#X connect 30 0 43 0;
#X connect 31 0 43 0;
#X connect 34 0 43 1;
#X connect 35 0 43 1;
#X connect 36 0 16 0;
#X connect 36 0 17 1;
#X connect 37 1 15 0;
#X connect 38 0 2 0;
#X connect 42 0 28 0;
#X connect 42 1 29 0;
#X connect 43 0 32 0;
#X connect 43 1 33 0;
#X connect 46 0 51 0;
#X connect 46 0 53 0;
#X connect 47 0 48 0;
#X connect 49 0 47 0;
#X connect 53 0 52 0;
#X connect 54 0 20 0;
#X connect 55 0 22 0;
#X connect 59 0 2 0;
#X coords 0 -1 1 1 102 90 1 100 100;
