#N canvas 856 196 475 381 10;
#X declare -path .;
#X declare -stdpath ggee;
#X obj 44 22 declare -path .;
#X obj 44 290 loadbang;
#X msg 44 311 0;
#X obj 36 134 cnv 15 120 40 empty empty empty 20 12 0 14 -260097 -66577
0;
#X obj 43 92 getdir;
#X obj 43 72 bng 15 250 50 0 empty empty empty 17 7 0 10 -262144 -1
-1;
#X obj 43 51 loadbang;
#X obj 36 189 cnv 15 150 40 empty empty empty 20 12 0 14 -257985 -66577
0;
#X obj 43 254 dac~;
#X obj 43 140 speaking MYSPEECH;
#X obj 43 209 speaker MYSPEECH 1;
#X msg 43 113 maindir \$1/myspeech-wavs;
#X obj 44 333 v MYSPEECH-VOICE1;
#X text 43 157 speaking master;
#X text 41 192 audio speaker instance;
#X obj 207 93 cnv 15 250 250 empty empty empty 20 12 0 14 -204786 -66577
0;
#X text 217 96 speech program:;
#X msg 76 311 1;
#N canvas 1 81 450 300 database-utils 0;
#X msg 47 40 0;
#X msg 77 40 1;
#X msg 212 48 hello;
#X msg 253 48 goodbye;
#X symbolatom 47 96 10 0 0 0 - - -, f 10;
#X floatatom 212 96 5 0 0 0 - - -, f 5;
#X msg 106 40 2;
#X msg 49 131 0;
#X msg 79 131 1;
#X symbolatom 49 186 10 0 0 0 - - -, f 10;
#X floatatom 208 185 5 0 0 0 - - -, f 5;
#X msg 208 138 joe;
#X msg 240 136 jack;
#X obj 47 73 intern/getID MYSPEECH phrase;
#X obj 49 165 intern/getID MYSPEECH voice;
#X connect 0 0 13 0;
#X connect 1 0 13 0;
#X connect 2 0 13 1;
#X connect 3 0 13 1;
#X connect 6 0 13 0;
#X connect 7 0 14 0;
#X connect 8 0 14 0;
#X connect 11 0 14 1;
#X connect 12 0 14 1;
#X connect 13 0 4 0;
#X connect 13 1 5 0;
#X connect 14 0 9 0;
#X connect 14 1 10 0;
#X restore 207 351 pd database-utils;
#X obj 202 23 declare -stdpath ggee;
#X text 335 23 needed for [getdir];
#X text 177 48 Additional needed externals: hcs iemlib;
#X text 369 161 silence;
#X obj 215 151 say MYSPEECH1 VOICE1 RND hello 500;
#X obj 215 224 say MYSPEECH1 VOICE1 RND thanks 1000;
#X obj 215 263 say MYSPEECH1 VOICE1 RND goodbye 0;
#X obj 215 302 bng 15 250 50 0 empty empty end 17 7 0 10 -262144 -1
-1;
#X text 99 290 set "VOICE1":;
#X obj 215 129 bng 15 250 50 0 empty empty start 17 7 0 10 -262144
-1 -1;
#X obj 43 230 *~ 0.1;
#X obj 215 188 say MYSPEECH1 - - - 1000;
#X connect 1 0 2 0;
#X connect 2 0 12 0;
#X connect 4 0 11 0;
#X connect 5 0 4 0;
#X connect 6 0 5 0;
#X connect 10 0 29 0;
#X connect 11 0 9 0;
#X connect 17 0 12 0;
#X connect 23 0 30 0;
#X connect 24 0 25 0;
#X connect 25 0 26 0;
#X connect 28 0 23 0;
#X connect 29 0 8 0;
#X connect 29 0 8 1;
#X connect 30 0 24 0;
