#N canvas 304 81 746 717 10;
#X declare -path intern;
#X declare -stdpath iemlib -stdlib iemlib1 -stdlib iemlib;
#X declare -stdpath hcs;
#X obj 176 591 outlet~;
#X obj 37 14 r speaker-\$1\$2-say;
#X obj 148 673 s speaker-\$1\$2-end;
#X obj 175 568 *~ 1;
#X obj 37 55 list split 1, f 52;
#X obj 191 75 list split 1, f 52;
#X obj 352 100 list split 1, f 53;
#X obj 509 125 list split 1;
#X obj 509 146 route float;
#X text 203 15 num;
#X text 283 14 wait;
#X text 155 14 voice;
#X text 234 14 phrase;
#X obj 194 138 random 10000;
#X obj 37 117 random 10000;
#X obj 70 205 v;
#X obj 97 162 list prepend \$1;
#X obj 70 142 t b s;
#X msg 97 183 symbol \$1-\$2;
#X obj 37 232 f;
#X obj 194 159 f;
#X obj 194 117 b;
#X obj 233 115 route float;
#X obj 194 96 sel RND;
#X obj 37 75 sel RND;
#X obj 76 95 route float symbol;
#X obj 509 200 f;
#X obj 509 167 max 1;
#X msg 572 166 1;
#X obj 37 36 t a a;
#X obj 394 14 declare -path intern;
#X obj 175 547 readsf~ 1 10000;
#X obj 175 476 t b s, f 7;
#X obj 175 499 del 5;
#X msg 214 498 0 \, open \$1;
#X msg 175 520 1;
#X obj 509 220 s \$0-wait;
#X obj 37 255 pack f f s, f 53;
#X obj 148 652 del 1, f 11;
#X obj 211 630 r \$0-wait;
#X obj 394 35 declare -stdpath iemlib -stdlib iemlib1 -stdlib iemlib
;
#X obj 200 339 soundfile_info;
#X msg 200 318 read \$1;
#X obj 148 298 t b s s, f 18;
#X msg 200 360 \$3;
#X obj 148 386 f;
#X msg 253 317 0;
#X obj 175 452 symbol;
#X obj 148 407 sel 0;
#X obj 175 429 b;
#X obj 394 54 declare -stdpath hcs;
#N canvas 1 81 435 643 compute_filename 0;
#X obj 33 16 inlet;
#X obj 129 112 text size speaking-\$1-voices;
#X obj 102 133 mod;
#X obj 102 154 t f f, f 31;
#X obj 102 175 list prepend \$1;
#X msg 102 195 symbol speaking-\$1-voice-\$2;
#X obj 67 238 text search;
#X obj 129 299 list split 1;
#X obj 129 280 text get, f 12;
#X obj 163 321 t a a;
#X obj 163 343 list length;
#X obj 58 390 mod, f 18;
#X obj 58 453 list split, f 25;
#X obj 58 411 t b f, f 25;
#X obj 131 476 list split 1;
#X obj 58 432 list, f 22;
#X obj 131 497 list prepend, f 17;
#X obj 67 217 t s s, f 33;
#X obj 131 518 list prepend, f 22;
#X obj 285 216 getID \$1 voice;
#X obj 131 539 list prepend, f 25;
#X obj 278 518 r speaking-\$1-maindir;
#X msg 131 560 symbol \$1/\$2/\$3/\$4.wav;
#X text 96 46 num phrase voice;
#X obj 33 68 unpack f s f;
#X msg 33 47 \$2 \$3 \$1;
#X obj 102 91 t f b;
#X text 74 15 voice num phrase;
#X obj 67 259 sel -1;
#X obj 33 344 list prepend;
#X msg 100 280 1;
#X msg 67 280 0;
#X obj 33 365 route 0 1;
#X obj 33 612 outlet unknownPhrase;
#X obj 131 581 outlet fileName;
#X connect 0 0 25 0;
#X connect 1 0 2 1;
#X connect 2 0 3 0;
#X connect 3 0 4 0;
#X connect 3 1 19 0;
#X connect 4 0 5 0;
#X connect 5 0 6 1;
#X connect 5 0 8 3;
#X connect 6 0 28 0;
#X connect 7 1 9 0;
#X connect 8 0 7 0;
#X connect 9 0 10 0;
#X connect 9 1 15 1;
#X connect 10 0 11 1;
#X connect 11 0 13 0;
#X connect 12 1 14 0;
#X connect 13 0 15 0;
#X connect 13 1 12 1;
#X connect 14 0 16 0;
#X connect 15 0 12 0;
#X connect 16 0 18 0;
#X connect 17 0 6 0;
#X connect 17 1 16 1;
#X connect 18 0 20 0;
#X connect 19 0 18 1;
#X connect 20 0 22 0;
#X connect 21 0 20 1;
#X connect 22 0 34 0;
#X connect 24 0 29 0;
#X connect 24 1 17 0;
#X connect 24 2 26 0;
#X connect 25 0 24 0;
#X connect 26 0 2 0;
#X connect 26 1 1 0;
#X connect 28 0 31 0;
#X connect 28 1 8 0;
#X connect 28 1 30 0;
#X connect 29 0 32 0;
#X connect 30 0 29 1;
#X connect 31 0 29 1;
#X connect 32 0 33 0;
#X connect 32 1 11 0;
#X restore 37 277 pd compute_filename;
#X obj 148 428 b;
#X connect 1 0 29 0;
#X connect 3 0 0 0;
#X connect 4 0 24 0;
#X connect 4 1 5 0;
#X connect 5 0 23 0;
#X connect 5 1 6 0;
#X connect 6 0 37 2;
#X connect 6 1 7 0;
#X connect 7 0 8 0;
#X connect 8 0 27 0;
#X connect 8 1 28 0;
#X connect 13 0 20 0;
#X connect 14 0 19 0;
#X connect 15 0 19 0;
#X connect 16 0 18 0;
#X connect 17 0 15 0;
#X connect 17 1 16 0;
#X connect 18 0 15 1;
#X connect 19 0 37 0;
#X connect 20 0 37 1;
#X connect 21 0 13 0;
#X connect 22 0 20 0;
#X connect 23 0 21 0;
#X connect 23 1 22 0;
#X connect 24 0 14 0;
#X connect 24 1 25 0;
#X connect 25 0 19 0;
#X connect 25 1 17 0;
#X connect 26 0 36 0;
#X connect 27 0 26 0;
#X connect 28 0 26 0;
#X connect 29 0 4 0;
#X connect 31 0 3 0;
#X connect 31 1 38 0;
#X connect 32 0 33 0;
#X connect 32 1 34 0;
#X connect 33 0 35 0;
#X connect 34 0 31 0;
#X connect 35 0 31 0;
#X connect 37 0 51 0;
#X connect 38 0 2 0;
#X connect 39 0 38 1;
#X connect 41 0 44 0;
#X connect 42 0 41 0;
#X connect 43 0 45 0;
#X connect 43 1 42 0;
#X connect 43 2 46 0;
#X connect 43 2 47 1;
#X connect 44 0 45 1;
#X connect 45 0 48 0;
#X connect 46 0 45 1;
#X connect 47 0 32 0;
#X connect 48 0 52 0;
#X connect 48 1 49 0;
#X connect 49 0 47 0;
#X connect 51 0 52 0;
#X connect 51 1 43 0;
#X connect 52 0 38 0;
