#N canvas 281 95 746 717 10;
#X declare -path intern;
#X declare -stdpath iemlib -stdlib iemlib1 -stdlib iemlib;
#X declare -stdpath hcs;
#X obj 176 591 outlet~;
#X obj 37 14 r speaker-\$1\$2-say;
#X obj 148 673 s speaker-\$1\$2-end;
#X obj 175 568 *~ 1;
#X obj 37 55 list split 1, f 53;
#X obj 194 76 list split 1, f 52;
#X obj 352 100 list split 1, f 53;
#X obj 509 125 list split 1;
#X obj 509 146 route float;
#X text 203 15 num;
#X text 283 14 wait;
#X text 155 14 voice;
#X text 234 14 phrase;
#X obj 37 117 random 10000;
#X obj 70 205 v;
#X obj 97 162 list prepend \$1;
#X obj 70 142 t b s;
#X msg 97 183 symbol \$1-\$2;
#X obj 37 232 f;
#X obj 194 159 f;
#X obj 233 115 route float;
#X obj 194 96 sel RND;
#X obj 37 75 sel RND;
#X obj 76 95 route float symbol;
#X obj 509 200 f;
#X obj 509 167 max 1;
#X msg 572 166 1;
#X obj 37 36 t a a;
#X obj 394 14 declare -path intern;
#X obj 175 547 readsf~ 1 10000;
#X obj 175 476 t b s, f 7;
#X obj 175 499 del 5;
#X msg 214 498 0 \, open \$1;
#X msg 175 520 1;
#X obj 509 220 s \$0-wait;
#X obj 37 255 pack f f s, f 53;
#X obj 148 652 del 1, f 11;
#X obj 211 630 r \$0-wait;
#X obj 394 35 declare -stdpath iemlib -stdlib iemlib1 -stdlib iemlib
;
#X obj 200 339 soundfile_info;
#X msg 200 318 read \$1;
#X obj 148 298 t b s s, f 18;
#X msg 200 360 \$3;
#X obj 148 386 f;
#X msg 253 317 0;
#X obj 175 452 symbol;
#X obj 148 407 sel 0;
#X obj 175 429 b;
#X obj 394 54 declare -stdpath hcs;
#N canvas 124 92 447 767 compute_filename 0;
#X obj 33 16 inlet;
#X obj 129 112 text size speaking-\$1-voices;
#X obj 102 133 mod, f 5;
#X obj 176 460 t a a;
#X obj 176 482 list length;
#X obj 115 504 mod, f 10;
#X obj 115 568 list split, f 18;
#X obj 115 526 t b f, f 18;
#X obj 167 588 list split 1;
#X obj 115 547 list, f 15;
#X obj 143 631 list prepend, f 17;
#X obj 67 194 t s s, f 33;
#X obj 143 652 list prepend, f 22;
#X obj 102 153 getID \$1 voice;
#X obj 143 673 list prepend, f 25;
#X obj 290 652 r speaking-\$1-maindir;
#X msg 143 694 symbol \$1/\$2/\$3/\$4.wav;
#X text 96 46 num phrase voice;
#X obj 33 68 unpack f s f;
#X msg 33 47 \$2 \$3 \$1;
#X obj 102 91 t f b;
#X text 74 15 voice num phrase;
#X obj 67 258 sel -1;
#X obj 33 306 list prepend;
#X msg 100 279 1;
#X msg 67 279 0;
#X obj 33 331 route 0 1;
#X obj 33 739 outlet unknownPhrase;
#X obj 143 715 outlet fileName;
#X obj 67 215 list prepend;
#X obj 67 237 text search speaking-\$1-set;
#X obj 142 417 text get speaking-\$1-set;
#X obj 142 438 list split 2;
#X obj 58 353 sel -1, f 10;
#X obj 115 375 t f b;
#X obj 142 397 f;
#N canvas 463 220 377 586 random_phrase 0;
#X obj 154 31 r \$0-phrase;
#X obj 256 53 r \$0-voicename;
#X obj 49 29 inlet bang;
#X obj 91 158 r \$0-line-in-master-set;
#X obj 49 116 text search speaker-\$1\$2-set;
#X obj 49 52 list, f 18;
#X obj 49 73 list prepend, f 35;
#X obj 49 137 sel -1, f 28;
#X obj 76 180 f;
#X obj 76 202 text get speaking-\$1-set;
#X obj 76 223 text insert speaker-\$1\$2-set;
#X obj 49 158 t b b;
#X obj 49 271 text search speaker-\$1\$2-set;
#X obj 49 297 f;
#N canvas 919 496 348 379 shufflelist 0;
#X obj 54 20 inlet list;
#X obj 54 324 outlet list;
#X obj 151 325 outlet last;
#X obj 54 41 t l l, f 15;
#X obj 141 62 list length;
#X obj 141 103 div 2;
#X obj 141 83 t f f, f 7;
#X obj 180 102 min 2;
#X obj 141 123 max, f 7;
#X obj 54 147 list split, f 15;
#X obj 159 147 t b f, f 6;
#X obj 159 168 random;
#X obj 54 207 list split, f 18;
#X obj 106 229 list split 1, f 13;
#X obj 54 272 list append, f 15;
#X obj 143 251 list append, f 17;
#X obj 54 297 list append, f 17;
#X connect 0 0 3 0;
#X connect 3 0 9 0;
#X connect 3 1 4 0;
#X connect 4 0 6 0;
#X connect 5 0 8 0;
#X connect 6 0 5 0;
#X connect 6 1 7 0;
#X connect 7 0 8 1;
#X connect 8 0 9 1;
#X connect 8 0 10 0;
#X connect 9 0 12 0;
#X connect 9 1 15 1;
#X connect 10 0 11 0;
#X connect 10 1 11 1;
#X connect 11 0 12 1;
#X connect 12 0 14 0;
#X connect 12 1 13 0;
#X connect 13 0 2 0;
#X connect 13 0 16 1;
#X connect 13 1 15 0;
#X connect 14 0 16 0;
#X connect 15 0 14 1;
#X connect 16 0 1 0;
#X restore 145 407 #X f 16;
#X obj 76 385 list split 2, f 24;
#X obj 76 429 list append, f 12;
#X obj 76 450 text set speaker-\$1\$2-set, f 23;
#X obj 76 341 t f f, f 8;
#X obj 49 318 t b f;
#X obj 49 482 list, f 32;
#X obj 49 505 outlet file;
#X obj 76 363 text get speaker-\$1\$2-set;
#X obj 49 249 list, f 35;
#X obj 49 94 t l l, f 35;
#X connect 0 0 5 1;
#X connect 1 0 6 1;
#X connect 2 0 5 0;
#X connect 3 0 8 1;
#X connect 4 0 7 0;
#X connect 5 0 6 0;
#X connect 6 0 24 0;
#X connect 7 0 11 0;
#X connect 7 1 13 0;
#X connect 8 0 9 0;
#X connect 9 0 10 0;
#X connect 11 0 23 0;
#X connect 11 1 8 0;
#X connect 12 0 13 0;
#X connect 13 0 19 0;
#X connect 14 0 16 1;
#X connect 14 1 20 1;
#X connect 15 0 16 0;
#X connect 15 1 14 0;
#X connect 16 0 17 0;
#X connect 18 0 22 0;
#X connect 18 1 17 1;
#X connect 19 0 20 0;
#X connect 19 1 18 0;
#X connect 20 0 21 0;
#X connect 22 0 15 0;
#X connect 23 0 12 0;
#X connect 24 0 4 0;
#X connect 24 1 23 1;
#X restore 58 591 #X obj 130 280 s \$0-line-in-master-set;
#X obj 157 375 r \$0-line-in-master-set;
#X obj 102 173 s \$0-voicename;
#X obj 272 629 r \$0-voicename;
#X obj 149 215 r \$0-voicename;
#X obj 262 214 s \$0-phrase;
#X obj 242 612 r \$0-phrase;
#X text 139 353 RND?;
#X text 94 331 found?;
#X connect 0 0 19 0;
#X connect 1 0 2 1;
#X connect 2 0 13 0;
#X connect 3 0 4 0;
#X connect 3 1 9 1;
#X connect 4 0 5 1;
#X connect 5 0 7 0;
#X connect 6 1 8 0;
#X connect 7 0 9 0;
#X connect 7 1 6 1;
#X connect 8 0 10 0;
#X connect 9 0 6 0;
#X connect 10 0 12 0;
#X connect 11 0 29 0;
#X connect 11 1 42 0;
#X connect 12 0 14 0;
#X connect 13 0 39 0;
#X connect 14 0 16 0;
#X connect 15 0 14 1;
#X connect 16 0 28 0;
#X connect 18 0 23 0;
#X connect 18 1 11 0;
#X connect 18 2 20 0;
#X connect 19 0 18 0;
#X connect 20 0 2 0;
#X connect 20 1 1 0;
#X connect 22 0 25 0;
#X connect 22 1 24 0;
#X connect 22 1 37 0;
#X connect 23 0 26 0;
#X connect 24 0 23 1;
#X connect 25 0 23 1;
#X connect 26 0 27 0;
#X connect 26 1 33 0;
#X connect 29 0 30 0;
#X connect 30 0 22 0;
#X connect 31 0 32 0;
#X connect 32 1 3 0;
#X connect 33 0 36 0;
#X connect 33 1 34 0;
#X connect 34 0 5 0;
#X connect 34 1 35 0;
#X connect 35 0 31 0;
#X connect 36 0 10 0;
#X connect 38 0 35 1;
#X connect 40 0 12 1;
#X connect 41 0 29 1;
#X connect 43 0 10 1;
#X restore 37 277 #X obj 148 428 b;
#X obj 194 117 -1;
#X obj 464 303 text define speaker-\$1\$2-set;
#X msg 464 359 -1;
#X obj 464 338 r speaking-\$1-fillAllVoices;
#X obj 464 381 text delete speaker-\$1\$2-set;
#X connect 1 0 27 0;
#X connect 3 0 0 0;
#X connect 4 0 22 0;
#X connect 4 1 5 0;
#X connect 5 0 21 0;
#X connect 5 1 6 0;
#X connect 6 0 35 2;
#X connect 6 1 7 0;
#X connect 7 0 8 0;
#X connect 8 0 25 0;
#X connect 8 1 26 0;
#X connect 13 0 18 0;
#X connect 14 0 18 0;
#X connect 15 0 17 0;
#X connect 16 0 14 0;
#X connect 16 1 15 0;
#X connect 17 0 14 1;
#X connect 18 0 35 0;
#X connect 19 0 35 1;
#X connect 20 0 19 0;
#X connect 21 0 51 0;
#X connect 21 1 20 0;
#X connect 22 0 13 0;
#X connect 22 1 23 0;
#X connect 23 0 18 0;
#X connect 23 1 16 0;
#X connect 24 0 34 0;
#X connect 25 0 24 0;
#X connect 26 0 24 0;
#X connect 27 0 4 0;
#X connect 29 0 3 0;
#X connect 29 1 36 0;
#X connect 30 0 31 0;
#X connect 30 1 32 0;
#X connect 31 0 33 0;
#X connect 32 0 29 0;
#X connect 33 0 29 0;
#X connect 35 0 49 0;
#X connect 36 0 2 0;
#X connect 37 0 36 1;
#X connect 39 0 42 0;
#X connect 40 0 39 0;
#X connect 41 0 43 0;
#X connect 41 1 40 0;
#X connect 41 2 44 0;
#X connect 41 2 45 1;
#X connect 42 0 43 1;
#X connect 43 0 46 0;
#X connect 44 0 43 1;
#X connect 45 0 30 0;
#X connect 46 0 50 0;
#X connect 46 1 47 0;
#X connect 47 0 45 0;
#X connect 49 0 50 0;
#X connect 49 1 41 0;
#X connect 50 0 36 0;
#X connect 51 0 19 0;
#X connect 53 0 55 0;
#X connect 54 0 53 0;
