#N canvas 502 166 762 502 10;
#X declare -stdpath ggee -stdpath hcs;
#X declare -stdpath iemlib -stdlib iemlib1 -stdlib iemlib;
#X declare -path intern;
#X obj 73 38 inlet;
#X obj 73 59 route maindir;
#X obj 73 80 symbol;
#X obj 229 38 print speaking-\$1-maindir;
#X obj 73 101 s speaking-\$1-maindir;
#X obj 229 17 r speaking-\$1-maindir;
#X obj 71 139 r speaking-\$1-maindir;
#X obj 71 160 t b s;
#X obj 108 257 text define speaking-\$1-phrases;
#X obj 291 276 route updated;
#X msg 108 184 symbol \$1/phrases.txt;
#X msg 108 234 read \$1;
#X obj 162 215 symbol;
#X obj 291 297 b;
#X msg 162 234 write \$1;
#X obj 275 381 route updated;
#X msg 98 339 read \$1;
#X obj 152 320 symbol;
#X obj 275 402 b;
#X msg 152 339 write \$1;
#X msg 275 227 click;
#X msg 318 227 close;
#X msg 279 335 click;
#X msg 322 335 close;
#X msg 459 247 0;
#X msg 489 247 1;
#X msg 546 249 hello;
#X msg 587 249 goodbye;
#X symbolatom 468 303 10 0 0 0 - - -, f 10;
#X floatatom 555 304 5 0 0 0 - - -, f 5;
#X msg 455 344 0;
#X msg 485 344 1;
#X symbolatom 464 400 10 0 0 0 - - -, f 10;
#X floatatom 551 401 5 0 0 0 - - -, f 5;
#X msg 542 346 joe;
#X msg 583 346 jack;
#X msg 98 291 symbol \$1/voices.txt;
#X obj 98 362 text define speaking-\$1-voices;
#X obj 452 166 clone voiceCache 10 \$1;
#N canvas 430 152 507 488 update-voice 0;
#X symbolatom 208 100 10 0 0 0 - - -, f 10;
#X obj 108 123 text size speaking-\$1-phrases;
#X obj 71 85 bng 15 250 50 0 empty empty empty 17 7 0 10 -262144 -1
-1;
#X obj 108 144 t f b;
#X obj 108 165 until;
#X obj 108 186 f;
#X obj 140 186 + 1;
#X msg 152 164 0;
#X obj 268 229 r speaking-\$1-maindir;
#X obj 127 253 pack s s s, f 24;
#X msg 127 274 symbol \$3/\$2/\$1/*.wav;
#X obj 127 295 folder_list;
#X msg 57 182 0;
#X obj 127 316 split_path;
#X obj 184 339 splitfilename .;
#X obj 184 360 list prepend;
#X obj 184 384 t l;
#X msg 147 359 list;
#X obj 108 406 list append;
#X obj 108 230 t s s b;
#X obj 291 85 list prepend \$1;
#X obj 291 170 text delete;
#X msg 291 106 symbol speaking-\$1-voice-\$2;
#X obj 291 127 t b s, f 11;
#X msg 291 148 -1;
#X obj 108 429 text insert 1e+06, f 53;
#X obj 108 56 t b f f, f 31;
#X obj 108 36 r speaking-\$1-updateVoice;
#X obj 199 77 getID \$1 voice;
#X obj 108 209 getID \$1 phrase;
#X connect 1 0 3 0;
#X connect 2 0 1 0;
#X connect 3 0 4 0;
#X connect 3 1 7 0;
#X connect 4 0 5 0;
#X connect 5 0 6 0;
#X connect 5 0 29 0;
#X connect 6 0 5 1;
#X connect 7 0 5 1;
#X connect 8 0 9 2;
#X connect 9 0 10 0;
#X connect 10 0 11 0;
#X connect 11 0 13 0;
#X connect 12 0 29 0;
#X connect 13 1 14 0;
#X connect 14 0 15 0;
#X connect 15 0 16 0;
#X connect 16 0 15 1;
#X connect 16 0 18 1;
#X connect 17 0 16 0;
#X connect 18 0 25 0;
#X connect 19 0 18 0;
#X connect 19 1 9 0;
#X connect 19 2 17 0;
#X connect 20 0 22 0;
#X connect 22 0 23 0;
#X connect 23 0 24 0;
#X connect 23 1 21 1;
#X connect 23 1 25 2;
#X connect 24 0 21 0;
#X connect 26 0 1 0;
#X connect 26 1 28 0;
#X connect 26 2 20 0;
#X connect 27 0 26 0;
#X connect 28 0 9 1;
#X connect 29 0 19 0;
#X restore 452 187 pd update-voice;
#X obj 54 60 bng 15 250 50 0 empty empty empty 17 7 0 10 -262144 -1
-1;
#X obj 397 37 declare -stdpath ggee -stdpath hcs;
#X obj 397 58 declare -stdpath iemlib -stdlib iemlib1 -stdlib iemlib
;
#X obj 71 415 s speaking-\$1-updateAllVoices;
#N canvas 1 125 346 245 update-allVoices 0;
#X obj 65 102 t f b;
#X obj 65 123 until;
#X obj 65 144 f;
#X obj 97 144 + 1;
#X msg 109 122 0;
#X obj 65 81 text size speaking-\$1-voices;
#X obj 65 168 s speaking-\$1-updateVoice;
#X obj 65 57 r speaking-\$1-updateAllVoices;
#X connect 0 0 1 0;
#X connect 0 1 4 0;
#X connect 1 0 2 0;
#X connect 2 0 3 0;
#X connect 2 0 6 0;
#X connect 3 0 2 1;
#X connect 4 0 2 1;
#X connect 5 0 0 0;
#X connect 7 0 5 0;
#X restore 452 206 pd update-allVoices;
#X msg 452 119 0;
#X msg 482 120 1;
#X msg 452 140 vis \$1 1;
#X obj 397 16 declare -path intern;
#X obj 468 282 getID \$1 phrase;
#X obj 464 379 getID \$1 voice, f 15;
#X connect 0 0 1 0;
#X connect 1 0 2 0;
#X connect 2 0 4 0;
#X connect 5 0 3 0;
#X connect 6 0 7 0;
#X connect 7 0 43 0;
#X connect 7 1 10 0;
#X connect 7 1 36 0;
#X connect 8 1 9 0;
#X connect 9 0 13 0;
#X connect 10 0 11 0;
#X connect 10 0 12 1;
#X connect 11 0 8 0;
#X connect 12 0 14 0;
#X connect 13 0 12 0;
#X connect 14 0 8 0;
#X connect 15 0 18 0;
#X connect 16 0 37 0;
#X connect 17 0 19 0;
#X connect 18 0 17 0;
#X connect 19 0 37 0;
#X connect 20 0 8 0;
#X connect 21 0 8 0;
#X connect 22 0 37 0;
#X connect 23 0 37 0;
#X connect 24 0 49 0;
#X connect 25 0 49 0;
#X connect 26 0 49 1;
#X connect 27 0 49 1;
#X connect 30 0 50 0;
#X connect 31 0 50 0;
#X connect 34 0 50 1;
#X connect 35 0 50 1;
#X connect 36 0 16 0;
#X connect 36 0 17 1;
#X connect 37 1 15 0;
#X connect 40 0 2 0;
#X connect 45 0 47 0;
#X connect 46 0 47 0;
#X connect 47 0 38 0;
#X connect 49 0 28 0;
#X connect 49 1 29 0;
#X connect 50 0 32 0;
#X connect 50 1 33 0;
