#N canvas 1 81 455 178 10;
#X obj 27 26 inlet ID;
#X obj 222 21 inlet phrase;
#X obj 27 123 outlet phrase;
#X obj 222 127 outlet ID;
#X obj 27 83 list split 1;
#X obj 222 42 symbol;
#X obj 27 62 text get speaking-\$1-\$2s;
#X obj 222 71 text search speaking-\$1-\$2s;
#X connect 0 0 6 0;
#X connect 1 0 5 0;
#X connect 4 0 2 0;
#X connect 5 0 7 0;
#X connect 6 0 4 0;
#X connect 7 0 3 0;
